{"title":"Kung Fu Panda (DVDRip 5.1ch WebM)","uid":5724460,"size":724298554,"categoryP":"video","categoryS":"movies","magnet":"?xt=urn:btih:1b7f4031137ce0db4ec6d0f850c1877b20de2674&amp;dn=Kung+Fu+Panda+%28DVDRip+5.1ch+WebM%29&amp;tr=udp%3A%2F%2Ftracker.openbittorrent.com%3A80&amp;tr=udp%3A%2F%2Fopen.demonii.com%3A1337&amp;tr=udp%3A%2F%2Ftracker.coppersurfer.tk%3A6969&amp;tr=udp%3A%2F%2Fexodus.desync.com%3A6969","seeders":0,"leechers":1,"uploader":"ouranogrammi","files":1,"time":1280409880,"description":"This is a direct DVD rip of Kung Fu Panda in Google's new open-source WebM format.\n\n**************************\n*** BIG FAT DISCLAIMER ***\n**************************\n\nWEBM IS A VERY NEW CODEC. THERE IS A VERY GOOD CHANCE THAT WHATEVER SOFTWARE YOU USE TO PLAY MOVIES DOES NOT YET SUPPORT IT.\n\nMore info here:\nwww.webmproject.org/\n\nIf you're on Windows, you will need to download the DirectShow filter to enable playback in Windows Media Player:\n &lt;a href=&quot;\nhttp://code.google.com/p/webm/downloads/list&quot; rel=&quot;nofollow&quot; target=&quot;_NEW&quot;&gt;\nhttp://code.google.com/p/webm/downloads/list&lt;/a&gt;\n\nAlternatively, a development build of VLC will play it (on any OS).\n\nThe current nightly build of Chromium (Google Chome dev build) plays the video fine, but trips up heavily on the 6 channel audio.\n\n**************************\n\nWhy am I uploading this?: There's currently NO WebM content on TPB, and I thought it needed some. \n\nWhy Kung Fu Panda?: This was ripped primarily to demonstrate the codec, and it's the first DVD I picked up that had a progressive scan video track, and the audio didn't require amplification. It seemed good for the purpose of demonstrating what you can cram into a CD-R with WebM.\n\nWhy WebM?: It's the new HTML5 standard codec. It has no patent restrictions, or any restrictions at all for that matter.\n\nComplete name                    : Kung Fu Panda.webm\nFormat                           : Matroska\nFile size                        : 691 MiB\nDuration                         : 1h 28mn\nOverall bit rate                 : 1 095 Kbps\nWriting application              : FFMpeg 0.6~svn20100711\nWriting library                  : Lavf52.73.0\n\nVideo\nID                               : 1\nFormat                           : V_VP8\nCodec ID                         : V_VP8\nDuration                         : 1h 28mn\nBit rate                         : 785 Kbps\nWidth                            : 716 pixels\nHeight                           : 432 pixels\nDisplay aspect ratio             : 2.35:1\nFrame rate                       : 25.000 fps\nBits/(Pixel*Frame)               : 0.102\nStream size                      : 495 MiB (72%)\n\nAudio\nID                               : 2\nFormat                           : Vorbis\nFormat settings, Floor           : 1\nCodec ID                         : A_VORBIS\nDuration                         : 1h 28mn\nBit rate mode                    : Variable\nBit rate                         : 235 Kbps\nChannel(s)                       : 6 channels\nSampling rate                    : 48.0 KHz\nStream size                      : 182 MiB (26%)\nWriting library                  : libVorbis 20090709 (UTC 2009-07-09)","torrent":{"xt":"urn:btih:1b7f4031137ce0db4ec6d0f850c1877b20de2674","amp;dn":"Kung+Fu+Panda+%28DVDRip+5.1ch+WebM%29","amp;tr":["udp%3A%2F%2Ftracker.openbittorrent.com%3A80","udp%3A%2F%2Fopen.demonii.com%3A1337","udp%3A%2F%2Ftracker.coppersurfer.tk%3A6969","udp%3A%2F%2Fexodus.desync.com%3A6969"],"infoHash":"1b7f4031137ce0db4ec6d0f850c1877b20de2674","infoHashBuffer":{"type":"Buffer","data":[27,127,64,49,19,124,224,219,78,198,208,248,80,193,135,123,32,222,38,116]},"announce":[],"urlList":[]}}